{
	"asset":{
		"generator":"Khronos glTF Blender I/O v4.2.57",
		"version":"2.0"
	},
	"extensionsUsed":[
		"OMI_physics_body",
		"OMI_physics_shape"
	],
	"extensions":{
		"OMI_physics_shape":{
			"shapes":[
				{
					"type":"convex",
					"mesh":0
				},
				{
					"type":"convex",
					"mesh":1
				},
				{
					"type":"convex",
					"mesh":2
				},
				{
					"type":"convex",
					"mesh":3
				},
				{
					"type":"convex",
					"mesh":4
				},
				{
					"type":"convex",
					"mesh":5
				},
				{
					"type":"convex",
					"mesh":6
				},
				{
					"type":"convex",
					"mesh":7
				},
				{
					"type":"convex",
					"mesh":8
				},
				{
					"type":"convex",
					"mesh":9
				},
				{
					"type":"convex",
					"mesh":10
				},
				{
					"type":"convex",
					"mesh":11
				},
				{
					"type":"convex",
					"mesh":12
				},
				{
					"type":"convex",
					"mesh":13
				}
			]
		}
	},
	"scene":0,
	"scenes":[
		{
			"name":"Scene",
			"nodes":[
				0,
				1,
				2,
				3,
				4,
				5,
				6,
				7,
				8,
				9,
				10,
				11,
				12,
				13
			]
		}
	],
	"nodes":[
		{
			"mesh":0,
			"name":"cylinderMesh"
		},
		{
			"mesh":1,
			"name":"difficult_shapeMesh"
		},
		{
			"mesh":2,
			"name":"SphereMesh"
		},
		{
			"mesh":3,
			"name":"floorMesh"
		},
		{
			"mesh":4,
			"name":"platform.001Mesh"
		},
		{
			"mesh":5,
			"name":"platformMesh"
		},
		{
			"mesh":6,
			"name":"stairsMesh"
		},
		{
			"mesh":7,
			"name":"characterMesh"
		},
		{
			"mesh":8,
			"name":"CubeMesh"
		},
		{
			"mesh":9,
			"name":"Cube.001Mesh"
		},
		{
			"mesh":10,
			"name":"other_cubeMesh"
		},
		{
			"mesh":11,
			"name":"Cube.002Mesh"
		},
		{
			"mesh":12,
			"name":"Cube.003Mesh"
		},
		{
			"mesh":13,
			"name":"Cube.004Mesh"
		},
		{
			"children":[
				0
			],
			"extensions":{
				"OMI_physics_body":{
					"type":"static",
					"collider":{
						"shape":0
					}
				}
			},
			"mesh":0,
			"name":"cylinder",
			"translation":[
				-21,
				9.999999046325684,
				28
			]
		},
		{
			"children":[
				1
			],
			"extensions":{
				"OMI_physics_body":{
					"type":"static",
					"collider":{
						"shape":1
					}
				}
			},
			"mesh":1,
			"name":"difficult_shape",
			"translation":[
				0,
				9.31955623626709,
				-16
			]
		},
		{
			"children":[
				2
			],
			"extensions":{
				"OMI_physics_body":{
					"type":"static",
					"collider":{
						"shape":2
					}
				}
			},
			"mesh":2,
			"name":"Sphere",
			"translation":[
				-18.999996185302734,
				5,
				16
			]
		},
		{
			"children":[
				3
			],
			"extensions":{
				"OMI_physics_body":{
					"type":"static",
					"collider":{
						"shape":3
					}
				}
			},
			"mesh":3,
			"name":"floor"
		},
		{
			"children":[
				4
			],
			"extensions":{
				"OMI_physics_body":{
					"type":"static",
					"collider":{
						"shape":4
					}
				}
			},
			"mesh":4,
			"name":"platform.001",
			"translation":[
				14,
				15.5,
				-20.5
			]
		},
		{
			"children":[
				5
			],
			"extensions":{
				"OMI_physics_body":{
					"type":"static",
					"collider":{
						"shape":5
					}
				}
			},
			"mesh":5,
			"name":"platform",
			"translation":[
				0,
				1.5,
				53.5
			]
		},
		{
			"children":[
				6
			],
			"extensions":{
				"OMI_physics_body":{
					"type":"static",
					"collider":{
						"shape":6
					}
				}
			},
			"mesh":6,
			"name":"stairs",
			"translation":[
				0,
				1.045454502105713,
				49.25742721557617
			]
		},
		{
			"children":[
				7
			],
			"extensions":{
				"OMI_physics_body":{
					"type":"static",
					"collider":{
						"shape":7
					}
				}
			},
			"mesh":7,
			"name":"character",
			"translation":[
				0,
				19.231563568115234,
				-15.959386825561523
			]
		},
		{
			"children":[
				8
			],
			"extensions":{
				"OMI_physics_body":{
					"type":"static",
					"collider":{
						"shape":8
					}
				}
			},
			"mesh":8,
			"name":"Cube",
			"translation":[
				19,
				7,
				0
			]
		},
		{
			"children":[
				9
			],
			"extensions":{
				"OMI_physics_body":{
					"type":"static",
					"collider":{
						"shape":9
					}
				}
			},
			"mesh":9,
			"name":"Cube.001",
			"translation":[
				12,
				9,
				11
			]
		},
		{
			"children":[
				10
			],
			"extensions":{
				"OMI_physics_body":{
					"type":"static",
					"collider":{
						"shape":10
					}
				}
			},
			"mesh":10,
			"name":"other_cube"
		},
		{
			"children":[
				11
			],
			"extensions":{
				"OMI_physics_body":{
					"type":"static",
					"collider":{
						"shape":11
					}
				}
			},
			"mesh":11,
			"name":"Cube.002",
			"translation":[
				-21,
				29.999998092651367,
				9
			]
		},
		{
			"children":[
				12
			],
			"extensions":{
				"OMI_physics_body":{
					"type":"static",
					"collider":{
						"shape":12
					}
				}
			},
			"mesh":12,
			"name":"Cube.003",
			"translation":[
				-10,
				22.999998092651367,
				-7
			]
		},
		{
			"children":[
				13
			],
			"extensions":{
				"OMI_physics_body":{
					"type":"static",
					"collider":{
						"shape":13
					}
				}
			},
			"mesh":13,
			"name":"Cube.004",
			"translation":[
				-2.999999761581421,
				21,
				-21
			]
		}
	],
	"materials":[
		{
			"doubleSided":true,
			"name":"Material",
			"pbrMetallicRoughness":{
				"baseColorFactor":[
					0.800000011920929,
					0.800000011920929,
					0.800000011920929,
					1
				],
				"metallicFactor":0,
				"roughnessFactor":0.5
			}
		},
		{
			"doubleSided":true,
			"name":"floor",
			"pbrMetallicRoughness":{
				"baseColorFactor":[
					0.08872450888156891,
					0.08872450888156891,
					0.08872450888156891,
					1
				],
				"metallicFactor":0
			}
		}
	],
	"meshes":[
		{
			"name":"Cylinder.001",
			"primitives":[
				{
					"attributes":{
						"POSITION":0,
						"NORMAL":1,
						"TEXCOORD_0":2
					},
					"indices":3
				}
			]
		},
		{
			"name":"Cylinder.003",
			"primitives":[
				{
					"attributes":{
						"POSITION":4,
						"NORMAL":5,
						"TEXCOORD_0":6
					},
					"indices":7
				}
			]
		},
		{
			"name":"Sphere.001",
			"primitives":[
				{
					"attributes":{
						"POSITION":8,
						"NORMAL":9,
						"TEXCOORD_0":10
					},
					"indices":11,
					"material":0
				}
			]
		},
		{
			"name":"Cube.008",
			"primitives":[
				{
					"attributes":{
						"POSITION":12,
						"NORMAL":13,
						"TEXCOORD_0":14
					},
					"indices":15,
					"material":1
				}
			]
		},
		{
			"name":"Cube.003",
			"primitives":[
				{
					"attributes":{
						"POSITION":16,
						"NORMAL":17,
						"TEXCOORD_0":18
					},
					"indices":19
				}
			]
		},
		{
			"name":"Cube.004",
			"primitives":[
				{
					"attributes":{
						"POSITION":20,
						"NORMAL":21,
						"TEXCOORD_0":22
					},
					"indices":23
				}
			]
		},
		{
			"name":"Cube.005",
			"primitives":[
				{
					"attributes":{
						"POSITION":24,
						"NORMAL":25,
						"TEXCOORD_0":26
					},
					"indices":27
				}
			]
		},
		{
			"name":"Suzanne.001",
			"primitives":[
				{
					"attributes":{
						"POSITION":28,
						"NORMAL":29,
						"TEXCOORD_0":30
					},
					"indices":31
				}
			]
		},
		{
			"name":"Cube",
			"primitives":[
				{
					"attributes":{
						"POSITION":32,
						"NORMAL":33,
						"TEXCOORD_0":34
					},
					"indices":35
				}
			]
		},
		{
			"name":"Cube.001",
			"primitives":[
				{
					"attributes":{
						"POSITION":36,
						"NORMAL":37,
						"TEXCOORD_0":38
					},
					"indices":15
				}
			]
		},
		{
			"name":"Cube.002",
			"primitives":[
				{
					"attributes":{
						"POSITION":39,
						"NORMAL":40,
						"TEXCOORD_0":41
					},
					"indices":15
				}
			]
		},
		{
			"name":"Cube.006",
			"primitives":[
				{
					"attributes":{
						"POSITION":42,
						"NORMAL":43,
						"TEXCOORD_0":44
					},
					"indices":15
				}
			]
		},
		{
			"name":"Cube.007",
			"primitives":[
				{
					"attributes":{
						"POSITION":45,
						"NORMAL":46,
						"TEXCOORD_0":47
					},
					"indices":15
				}
			]
		},
		{
			"name":"Cube.009",
			"primitives":[
				{
					"attributes":{
						"POSITION":48,
						"NORMAL":49,
						"TEXCOORD_0":50
					},
					"indices":15
				}
			]
		}
	],
	"accessors":[
		{
			"bufferView":0,
			"componentType":5126,
			"count":38,
			"max":[
				2.712390899658203,
				9.999999046325684,
				3.131999969482422
			],
			"min":[
				-2.712390899658203,
				-9.999999046325684,
				-3.131999969482422
			],
			"type":"VEC3"
		},
		{
			"bufferView":1,
			"componentType":5126,
			"count":38,
			"type":"VEC3"
		},
		{
			"bufferView":2,
			"componentType":5126,
			"count":38,
			"type":"VEC2"
		},
		{
			"bufferView":3,
			"componentType":5123,
			"count":72,
			"type":"SCALAR"
		},
		{
			"bufferView":4,
			"componentType":5126,
			"count":110,
			"max":[
				2.712390899658203,
				5.332305908203125,
				3.131999969482422
			],
			"min":[
				-2.712390899658203,
				-9.31955623626709,
				-3.131999969482422
			],
			"type":"VEC3"
		},
		{
			"bufferView":5,
			"componentType":5126,
			"count":110,
			"type":"VEC3"
		},
		{
			"bufferView":6,
			"componentType":5126,
			"count":110,
			"type":"VEC2"
		},
		{
			"bufferView":7,
			"componentType":5123,
			"count":180,
			"type":"SCALAR"
		},
		{
			"bufferView":8,
			"componentType":5126,
			"count":1984,
			"max":[
				4.999995231628418,
				5,
				4.999996185302734
			],
			"min":[
				-5,
				-5,
				-5
			],
			"type":"VEC3"
		},
		{
			"bufferView":9,
			"componentType":5126,
			"count":1984,
			"type":"VEC3"
		},
		{
			"bufferView":10,
			"componentType":5126,
			"count":1984,
			"type":"VEC2"
		},
		{
			"bufferView":11,
			"componentType":5123,
			"count":2880,
			"type":"SCALAR"
		},
		{
			"bufferView":12,
			"componentType":5126,
			"count":24,
			"max":[
				79.99999237060547,
				0.050000011920928955,
				79.99999237060547
			],
			"min":[
				-79.99999237060547,
				-0.050000011920928955,
				-79.99999237060547
			],
			"type":"VEC3"
		},
		{
			"bufferView":13,
			"componentType":5126,
			"count":24,
			"type":"VEC3"
		},
		{
			"bufferView":14,
			"componentType":5126,
			"count":24,
			"type":"VEC2"
		},
		{
			"bufferView":15,
			"componentType":5123,
			"count":36,
			"type":"SCALAR"
		},
		{
			"bufferView":16,
			"componentType":5126,
			"count":24,
			"max":[
				9.78946304321289,
				11.494964599609375,
				11.824563980102539
			],
			"min":[
				-9.789462089538574,
				-11.494964599609375,
				-11.824562072753906
			],
			"type":"VEC3"
		},
		{
			"bufferView":17,
			"componentType":5126,
			"count":24,
			"type":"VEC3"
		},
		{
			"bufferView":18,
			"componentType":5126,
			"count":24,
			"type":"VEC2"
		},
		{
			"bufferView":19,
			"componentType":5123,
			"count":36,
			"type":"SCALAR"
		},
		{
			"bufferView":20,
			"componentType":5126,
			"count":24,
			"max":[
				2.500000238418579,
				1.5,
				2.5
			],
			"min":[
				-2.500000238418579,
				-1.5,
				-2.5
			],
			"type":"VEC3"
		},
		{
			"bufferView":21,
			"componentType":5126,
			"count":24,
			"type":"VEC3"
		},
		{
			"bufferView":22,
			"componentType":5126,
			"count":24,
			"type":"VEC2"
		},
		{
			"bufferView":23,
			"componentType":5123,
			"count":36,
			"type":"SCALAR"
		},
		{
			"bufferView":24,
			"componentType":5126,
			"count":264,
			"max":[
				2.5,
				1.954545497894287,
				1.7420845031738281
			],
			"min":[
				-2.500000476837158,
				-1.045454502105713,
				-3.256938934326172
			],
			"type":"VEC3"
		},
		{
			"bufferView":25,
			"componentType":5126,
			"count":264,
			"type":"VEC3"
		},
		{
			"bufferView":26,
			"componentType":5126,
			"count":264,
			"type":"VEC2"
		},
		{
			"bufferView":27,
			"componentType":5123,
			"count":396,
			"type":"SCALAR"
		},
		{
			"bufferView":28,
			"componentType":5126,
			"count":1966,
			"max":[
				1.3671875,
				0.7528114318847656,
				0.8109493255615234
			],
			"min":[
				-1.3671875,
				-1.2159385681152344,
				-0.8921756744384766
			],
			"type":"VEC3"
		},
		{
			"bufferView":29,
			"componentType":5126,
			"count":1966,
			"type":"VEC3"
		},
		{
			"bufferView":30,
			"componentType":5126,
			"count":1966,
			"type":"VEC2"
		},
		{
			"bufferView":31,
			"componentType":5123,
			"count":2904,
			"type":"SCALAR"
		},
		{
			"bufferView":32,
			"componentType":5126,
			"count":24,
			"max":[
				2.612245559692383,
				2.612245559692383,
				2.612245559692383
			],
			"min":[
				-2.612245559692383,
				-2.612245559692383,
				-2.612245559692383
			],
			"type":"VEC3"
		},
		{
			"bufferView":33,
			"componentType":5126,
			"count":24,
			"type":"VEC3"
		},
		{
			"bufferView":34,
			"componentType":5126,
			"count":24,
			"type":"VEC2"
		},
		{
			"bufferView":35,
			"componentType":5123,
			"count":36,
			"type":"SCALAR"
		},
		{
			"bufferView":36,
			"componentType":5126,
			"count":24,
			"max":[
				1.3315973281860352,
				1.3315973281860352,
				1.3315973281860352
			],
			"min":[
				-1.3315973281860352,
				-1.3315973281860352,
				-1.3315973281860352
			],
			"type":"VEC3"
		},
		{
			"bufferView":37,
			"componentType":5126,
			"count":24,
			"type":"VEC3"
		},
		{
			"bufferView":38,
			"componentType":5126,
			"count":24,
			"type":"VEC2"
		},
		{
			"bufferView":39,
			"componentType":5126,
			"count":24,
			"max":[
				1,
				1,
				1
			],
			"min":[
				-1,
				-1,
				-1
			],
			"type":"VEC3"
		},
		{
			"bufferView":40,
			"componentType":5126,
			"count":24,
			"type":"VEC3"
		},
		{
			"bufferView":41,
			"componentType":5126,
			"count":24,
			"type":"VEC2"
		},
		{
			"bufferView":42,
			"componentType":5126,
			"count":24,
			"max":[
				7.872077941894531,
				7.872079849243164,
				7.872077941894531
			],
			"min":[
				-7.872077941894531,
				-7.872077941894531,
				-7.872077941894531
			],
			"type":"VEC3"
		},
		{
			"bufferView":43,
			"componentType":5126,
			"count":24,
			"type":"VEC3"
		},
		{
			"bufferView":44,
			"componentType":5126,
			"count":24,
			"type":"VEC2"
		},
		{
			"bufferView":45,
			"componentType":5126,
			"count":24,
			"max":[
				6.1033220291137695,
				6.103322982788086,
				6.1033220291137695
			],
			"min":[
				-6.103321075439453,
				-6.103322982788086,
				-6.1033220291137695
			],
			"type":"VEC3"
		},
		{
			"bufferView":46,
			"componentType":5126,
			"count":24,
			"type":"VEC3"
		},
		{
			"bufferView":47,
			"componentType":5126,
			"count":24,
			"type":"VEC2"
		},
		{
			"bufferView":48,
			"componentType":5126,
			"count":24,
			"max":[
				4.169081687927246,
				4.16908073425293,
				4.1690826416015625
			],
			"min":[
				-4.169081687927246,
				-4.1690826416015625,
				-4.1690826416015625
			],
			"type":"VEC3"
		},
		{
			"bufferView":49,
			"componentType":5126,
			"count":24,
			"type":"VEC3"
		},
		{
			"bufferView":50,
			"componentType":5126,
			"count":24,
			"type":"VEC2"
		}
	],
	"bufferViews":[
		{
			"buffer":0,
			"byteLength":456,
			"byteOffset":0,
			"target":34962
		},
		{
			"buffer":0,
			"byteLength":456,
			"byteOffset":456,
			"target":34962
		},
		{
			"buffer":0,
			"byteLength":304,
			"byteOffset":912,
			"target":34962
		},
		{
			"buffer":0,
			"byteLength":144,
			"byteOffset":1216,
			"target":34963
		},
		{
			"buffer":0,
			"byteLength":1320,
			"byteOffset":1360,
			"target":34962
		},
		{
			"buffer":0,
			"byteLength":1320,
			"byteOffset":2680,
			"target":34962
		},
		{
			"buffer":0,
			"byteLength":880,
			"byteOffset":4000,
			"target":34962
		},
		{
			"buffer":0,
			"byteLength":360,
			"byteOffset":4880,
			"target":34963
		},
		{
			"buffer":0,
			"byteLength":23808,
			"byteOffset":5240,
			"target":34962
		},
		{
			"buffer":0,
			"byteLength":23808,
			"byteOffset":29048,
			"target":34962
		},
		{
			"buffer":0,
			"byteLength":15872,
			"byteOffset":52856,
			"target":34962
		},
		{
			"buffer":0,
			"byteLength":5760,
			"byteOffset":68728,
			"target":34963
		},
		{
			"buffer":0,
			"byteLength":288,
			"byteOffset":74488,
			"target":34962
		},
		{
			"buffer":0,
			"byteLength":288,
			"byteOffset":74776,
			"target":34962
		},
		{
			"buffer":0,
			"byteLength":192,
			"byteOffset":75064,
			"target":34962
		},
		{
			"buffer":0,
			"byteLength":72,
			"byteOffset":75256,
			"target":34963
		},
		{
			"buffer":0,
			"byteLength":288,
			"byteOffset":75328,
			"target":34962
		},
		{
			"buffer":0,
			"byteLength":288,
			"byteOffset":75616,
			"target":34962
		},
		{
			"buffer":0,
			"byteLength":192,
			"byteOffset":75904,
			"target":34962
		},
		{
			"buffer":0,
			"byteLength":72,
			"byteOffset":76096,
			"target":34963
		},
		{
			"buffer":0,
			"byteLength":288,
			"byteOffset":76168,
			"target":34962
		},
		{
			"buffer":0,
			"byteLength":288,
			"byteOffset":76456,
			"target":34962
		},
		{
			"buffer":0,
			"byteLength":192,
			"byteOffset":76744,
			"target":34962
		},
		{
			"buffer":0,
			"byteLength":72,
			"byteOffset":76936,
			"target":34963
		},
		{
			"buffer":0,
			"byteLength":3168,
			"byteOffset":77008,
			"target":34962
		},
		{
			"buffer":0,
			"byteLength":3168,
			"byteOffset":80176,
			"target":34962
		},
		{
			"buffer":0,
			"byteLength":2112,
			"byteOffset":83344,
			"target":34962
		},
		{
			"buffer":0,
			"byteLength":792,
			"byteOffset":85456,
			"target":34963
		},
		{
			"buffer":0,
			"byteLength":23592,
			"byteOffset":86248,
			"target":34962
		},
		{
			"buffer":0,
			"byteLength":23592,
			"byteOffset":109840,
			"target":34962
		},
		{
			"buffer":0,
			"byteLength":15728,
			"byteOffset":133432,
			"target":34962
		},
		{
			"buffer":0,
			"byteLength":5808,
			"byteOffset":149160,
			"target":34963
		},
		{
			"buffer":0,
			"byteLength":288,
			"byteOffset":154968,
			"target":34962
		},
		{
			"buffer":0,
			"byteLength":288,
			"byteOffset":155256,
			"target":34962
		},
		{
			"buffer":0,
			"byteLength":192,
			"byteOffset":155544,
			"target":34962
		},
		{
			"buffer":0,
			"byteLength":72,
			"byteOffset":155736,
			"target":34963
		},
		{
			"buffer":0,
			"byteLength":288,
			"byteOffset":155808,
			"target":34962
		},
		{
			"buffer":0,
			"byteLength":288,
			"byteOffset":156096,
			"target":34962
		},
		{
			"buffer":0,
			"byteLength":192,
			"byteOffset":156384,
			"target":34962
		},
		{
			"buffer":0,
			"byteLength":288,
			"byteOffset":156576,
			"target":34962
		},
		{
			"buffer":0,
			"byteLength":288,
			"byteOffset":156864,
			"target":34962
		},
		{
			"buffer":0,
			"byteLength":192,
			"byteOffset":157152,
			"target":34962
		},
		{
			"buffer":0,
			"byteLength":288,
			"byteOffset":157344,
			"target":34962
		},
		{
			"buffer":0,
			"byteLength":288,
			"byteOffset":157632,
			"target":34962
		},
		{
			"buffer":0,
			"byteLength":192,
			"byteOffset":157920,
			"target":34962
		},
		{
			"buffer":0,
			"byteLength":288,
			"byteOffset":158112,
			"target":34962
		},
		{
			"buffer":0,
			"byteLength":288,
			"byteOffset":158400,
			"target":34962
		},
		{
			"buffer":0,
			"byteLength":192,
			"byteOffset":158688,
			"target":34962
		},
		{
			"buffer":0,
			"byteLength":288,
			"byteOffset":158880,
			"target":34962
		},
		{
			"buffer":0,
			"byteLength":288,
			"byteOffset":159168,
			"target":34962
		},
		{
			"buffer":0,
			"byteLength":192,
			"byteOffset":159456,
			"target":34962
		}
	],
	"buffers":[
		{
			"byteLength":159648,
			"uri":"test_map.bin"
		}
	]
}
