{
	"asset":{
		"generator":"Khronos glTF Blender I/O v3.6.27",
		"version":"2.0"
	},
	"extensionsUsed":[
		"OMI_physics_body",
		"OMI_physics_shape"
	],
	"extensions":{
		"OMI_physics_shape":{
			"shapes":[
				{
					"type":"convex",
					"convex":{
						"mesh":0
					}
				},
				{
					"type":"convex",
					"convex":{
						"mesh":1
					}
				},
				{
					"type":"convex",
					"convex":{
						"mesh":2
					}
				}
			]
		}
	},
	"scene":0,
	"scenes":[
		{
			"name":"Scene",
			"nodes":[
				4,
				5
			]
		}
	],
	"nodes":[
		{
			"mesh":0,
			"name":"SuzanneMesh"
		},
		{
			"extensions":{
				"OMI_physics_body":{
					"collider":{
						"shape":0
					}
				}
			},
			"mesh":0,
			"name":"SuzeanneCollisionShape"
		},
		{
			"extensions":{
				"OMI_physics_body":{
					"collider":{
						"shape":1
					}
				}
			},
			"mesh":1,
			"name":"SuzeanneCollisionShape.001",
			"translation":[
				-4.318890571594238,
				0,
				0
			]
		},
		{
			"extensions":{
				"OMI_physics_body":{
					"collider":{
						"shape":0
					}
				}
			},
			"mesh":0,
			"name":"SuzeanneCollisionShape.002",
			"translation":[
				5.098755359649658,
				0,
				0
			]
		},
		{
			"children":[
				0,
				1,
				2,
				3
			],
			"extensions":{
				"OMI_physics_body":{
					"motion":{
						"type":"static"
					}
				}
			},
			"name":"StaticBody3D"
		},
		{
			"extensions":{
				"OMI_physics_body":{
					"collider":{
						"shape":2
					}
				}
			},
			"mesh":2,
			"name":"Cube",
			"translation":[
				0,
				0,
				8.159261703491211
			]
		}
	],
	"meshes":[
		{
			"name":"Suzanne",
			"primitives":[
				{
					"attributes":{
						"POSITION":0,
						"NORMAL":1,
						"TEXCOORD_0":2
					},
					"indices":3
				}
			]
		},
		{
			"name":"Suzanne.001",
			"primitives":[
				{
					"attributes":{
						"POSITION":4,
						"NORMAL":5,
						"TEXCOORD_0":6
					},
					"indices":3
				}
			]
		},
		{
			"name":"Cube",
			"primitives":[
				{
					"attributes":{
						"POSITION":7,
						"NORMAL":8,
						"TEXCOORD_0":9
					},
					"indices":10
				}
			]
		}
	],
	"accessors":[
		{
			"bufferView":0,
			"componentType":5126,
			"count":1722,
			"max":[
				1.3671875,
				0.984375,
				0.8515625
			],
			"min":[
				-1.3671875,
				-0.5703125,
				-0.8515625
			],
			"type":"VEC3"
		},
		{
			"bufferView":1,
			"componentType":5126,
			"count":1722,
			"type":"VEC3"
		},
		{
			"bufferView":2,
			"componentType":5126,
			"count":1722,
			"type":"VEC2"
		},
		{
			"bufferView":3,
			"componentType":5123,
			"count":2538,
			"type":"SCALAR"
		},
		{
			"bufferView":4,
			"componentType":5126,
			"count":1722,
			"max":[
				1.3671875,
				0.984375,
				0.8515625
			],
			"min":[
				-1.3671875,
				-0.5703125,
				-0.8515625
			],
			"type":"VEC3"
		},
		{
			"bufferView":5,
			"componentType":5126,
			"count":1722,
			"type":"VEC3"
		},
		{
			"bufferView":6,
			"componentType":5126,
			"count":1722,
			"type":"VEC2"
		},
		{
			"bufferView":7,
			"componentType":5126,
			"count":24,
			"max":[
				1,
				1,
				1
			],
			"min":[
				-1,
				-1,
				-1
			],
			"type":"VEC3"
		},
		{
			"bufferView":8,
			"componentType":5126,
			"count":24,
			"type":"VEC3"
		},
		{
			"bufferView":9,
			"componentType":5126,
			"count":24,
			"type":"VEC2"
		},
		{
			"bufferView":10,
			"componentType":5123,
			"count":36,
			"type":"SCALAR"
		}
	],
	"bufferViews":[
		{
			"buffer":0,
			"byteLength":20664,
			"byteOffset":0,
			"target":34962
		},
		{
			"buffer":0,
			"byteLength":20664,
			"byteOffset":20664,
			"target":34962
		},
		{
			"buffer":0,
			"byteLength":13776,
			"byteOffset":41328,
			"target":34962
		},
		{
			"buffer":0,
			"byteLength":5076,
			"byteOffset":55104,
			"target":34963
		},
		{
			"buffer":0,
			"byteLength":20664,
			"byteOffset":60180,
			"target":34962
		},
		{
			"buffer":0,
			"byteLength":20664,
			"byteOffset":80844,
			"target":34962
		},
		{
			"buffer":0,
			"byteLength":13776,
			"byteOffset":101508,
			"target":34962
		},
		{
			"buffer":0,
			"byteLength":288,
			"byteOffset":115284,
			"target":34962
		},
		{
			"buffer":0,
			"byteLength":288,
			"byteOffset":115572,
			"target":34962
		},
		{
			"buffer":0,
			"byteLength":192,
			"byteOffset":115860,
			"target":34962
		},
		{
			"buffer":0,
			"byteLength":72,
			"byteOffset":116052,
			"target":34963
		}
	],
	"buffers":[
		{
			"byteLength":116124,
			"uri":"test-file.bin"
		}
	]
}
