{
	"asset":{
		"generator":"Khronos glTF Blender I/O v4.2.57",
		"version":"2.0"
	},
	"extensionsUsed":[
		"OMI_physics_shape"
	],
	"extensions":{},
	"scene":0,
	"scenes":[
		{
			"name":"Scene",
			"nodes":[
				6
			]
		}
	],
	"nodes":[
		{
			"mesh":0,
			"name":"Cube.001",
			"translation":[
				10.478643417358398,
				8.847053527832031,
				6.140887260437012
			]
		},
		{
			"mesh":1,
			"name":"Cube.002",
			"translation":[
				-9.285055160522461,
				2.4437801837921143,
				8.07651424407959
			]
		},
		{
			"mesh":2,
			"name":"Cube.004",
			"translation":[
				17.596271514892578,
				6.581674098968506,
				-1.1118316650390625
			]
		},
		{
			"mesh":3,
			"name":"Icosphere",
			"translation":[
				0.8372991681098938,
				6.859004020690918,
				-12.726374626159668
			]
		},
		{
			"children":[
				0,
				1,
				2,
				3
			],
			"mesh":4,
			"name":"Cube",
			"translation":[
				0,
				1,
				0
			]
		},
		{
			"children":[
				4
			],
			"name":"map"
		},
		{
			"children":[
				5
			],
			"name":"Scene Collection"
		}
	],
	"meshes":[
		{
			"name":"Cube.002",
			"primitives":[
				{
					"attributes":{
						"POSITION":0,
						"NORMAL":1,
						"TEXCOORD_0":2
					},
					"indices":3
				}
			]
		},
		{
			"name":"Cube.003",
			"primitives":[
				{
					"attributes":{
						"POSITION":4,
						"NORMAL":5,
						"TEXCOORD_0":6
					},
					"indices":7
				}
			]
		},
		{
			"name":"Cube.005",
			"primitives":[
				{
					"attributes":{
						"POSITION":8,
						"NORMAL":9,
						"TEXCOORD_0":10
					},
					"indices":11
				}
			]
		},
		{
			"name":"Icosphere",
			"primitives":[
				{
					"attributes":{
						"POSITION":12,
						"NORMAL":13,
						"TEXCOORD_0":14
					},
					"indices":15
				}
			]
		},
		{
			"name":"Cube.001",
			"primitives":[
				{
					"attributes":{
						"POSITION":16,
						"NORMAL":17,
						"TEXCOORD_0":18
					},
					"indices":19
				}
			]
		}
	],
	"accessors":[
		{
			"bufferView":0,
			"componentType":5126,
			"count":24,
			"max":[
				2.661923408508301,
				2.5717830657958984,
				2.426419258117676
			],
			"min":[
				-2.661923408508301,
				-2.5717830657958984,
				-2.4264190196990967
			],
			"type":"VEC3"
		},
		{
			"bufferView":1,
			"componentType":5126,
			"count":24,
			"type":"VEC3"
		},
		{
			"bufferView":2,
			"componentType":5126,
			"count":24,
			"type":"VEC2"
		},
		{
			"bufferView":3,
			"componentType":5123,
			"count":36,
			"type":"SCALAR"
		},
		{
			"bufferView":4,
			"componentType":5126,
			"count":40,
			"max":[
				2.863584041595459,
				3.5703060626983643,
				2.6937389373779297
			],
			"min":[
				-3.548952102661133,
				-4.838218688964844,
				-2.6690335273742676
			],
			"type":"VEC3"
		},
		{
			"bufferView":5,
			"componentType":5126,
			"count":40,
			"type":"VEC3"
		},
		{
			"bufferView":6,
			"componentType":5126,
			"count":40,
			"type":"VEC2"
		},
		{
			"bufferView":7,
			"componentType":5123,
			"count":60,
			"type":"SCALAR"
		},
		{
			"bufferView":8,
			"componentType":5126,
			"count":72,
			"max":[
				1.6740436553955078,
				4.867647647857666,
				1.6740444898605347
			],
			"min":[
				-1.6740446090698242,
				-4.666476249694824,
				-1.6740446090698242
			],
			"type":"VEC3"
		},
		{
			"bufferView":9,
			"componentType":5126,
			"count":72,
			"type":"VEC3"
		},
		{
			"bufferView":10,
			"componentType":5126,
			"count":72,
			"type":"VEC2"
		},
		{
			"bufferView":11,
			"componentType":5123,
			"count":108,
			"type":"SCALAR"
		},
		{
			"bufferView":12,
			"componentType":5126,
			"count":240,
			"max":[
				0.9510578513145447,
				1,
				1
			],
			"min":[
				-0.9510579109191895,
				-1,
				-1
			],
			"type":"VEC3"
		},
		{
			"bufferView":13,
			"componentType":5126,
			"count":240,
			"type":"VEC3"
		},
		{
			"bufferView":14,
			"componentType":5126,
			"count":240,
			"type":"VEC2"
		},
		{
			"bufferView":15,
			"componentType":5123,
			"count":240,
			"type":"SCALAR"
		},
		{
			"bufferView":16,
			"componentType":5126,
			"count":24,
			"max":[
				1,
				1,
				1
			],
			"min":[
				-1,
				-1,
				-1
			],
			"type":"VEC3"
		},
		{
			"bufferView":17,
			"componentType":5126,
			"count":24,
			"type":"VEC3"
		},
		{
			"bufferView":18,
			"componentType":5126,
			"count":24,
			"type":"VEC2"
		},
		{
			"bufferView":19,
			"componentType":5123,
			"count":36,
			"type":"SCALAR"
		}
	],
	"bufferViews":[
		{
			"buffer":0,
			"byteLength":288,
			"byteOffset":0,
			"target":34962
		},
		{
			"buffer":0,
			"byteLength":288,
			"byteOffset":288,
			"target":34962
		},
		{
			"buffer":0,
			"byteLength":192,
			"byteOffset":576,
			"target":34962
		},
		{
			"buffer":0,
			"byteLength":72,
			"byteOffset":768,
			"target":34963
		},
		{
			"buffer":0,
			"byteLength":480,
			"byteOffset":840,
			"target":34962
		},
		{
			"buffer":0,
			"byteLength":480,
			"byteOffset":1320,
			"target":34962
		},
		{
			"buffer":0,
			"byteLength":320,
			"byteOffset":1800,
			"target":34962
		},
		{
			"buffer":0,
			"byteLength":120,
			"byteOffset":2120,
			"target":34963
		},
		{
			"buffer":0,
			"byteLength":864,
			"byteOffset":2240,
			"target":34962
		},
		{
			"buffer":0,
			"byteLength":864,
			"byteOffset":3104,
			"target":34962
		},
		{
			"buffer":0,
			"byteLength":576,
			"byteOffset":3968,
			"target":34962
		},
		{
			"buffer":0,
			"byteLength":216,
			"byteOffset":4544,
			"target":34963
		},
		{
			"buffer":0,
			"byteLength":2880,
			"byteOffset":4760,
			"target":34962
		},
		{
			"buffer":0,
			"byteLength":2880,
			"byteOffset":7640,
			"target":34962
		},
		{
			"buffer":0,
			"byteLength":1920,
			"byteOffset":10520,
			"target":34962
		},
		{
			"buffer":0,
			"byteLength":480,
			"byteOffset":12440,
			"target":34963
		},
		{
			"buffer":0,
			"byteLength":288,
			"byteOffset":12920,
			"target":34962
		},
		{
			"buffer":0,
			"byteLength":288,
			"byteOffset":13208,
			"target":34962
		},
		{
			"buffer":0,
			"byteLength":192,
			"byteOffset":13496,
			"target":34962
		},
		{
			"buffer":0,
			"byteLength":72,
			"byteOffset":13688,
			"target":34963
		}
	],
	"buffers":[
		{
			"byteLength":13760,
			"uri":"collisions_test.bin"
		}
	]
}
