{
	"asset":{
		"generator":"Khronos glTF Blender I/O v4.2.57",
		"version":"2.0"
	},
	"extensionsUsed":[
		"OMI_physics_body",
		"OMI_physics_shape"
	],
	"extensions":{
		"OMI_physics_shape":{
			"shapes":[
				{
					"type":"convex",
					"convex":{
						"mesh":0
					}
				}
			]
		}
	},
	"scene":0,
	"scenes":[
		{
			"extras":{
				"object_properties":{
					"is_motion":1,
					"is_collision":1,
					"shape_types":"convex",
					"index":-1
				},
				"body_properties":{
					"is_motion":1,
					"shape_index":0
				},
				"shape_properties":{
					"is_collision":1,
					"mesh":0,
					"index":0
				},
				"unit_size":1.0
			},
			"name":"Scene",
			"nodes":[
				0,
				1,
				8,
				9,
				10
			]
		}
	],
	"nodes":[
		{
			"name":"column"
		},
		{
			"extensions":{
				"OMI_physics_body":{
					"motion":{
						"type":"static"
					},
					"collider":{
						"shape":0
					}
				}
			},
			"extras":{
				"OMI_physics_body":{
					"motion":{
						"type":"static"
					},
					"collider":{
						"shape":0
					}
				},
				"OMI_physics_shape":{
					"type":"convex",
					"convex":{
						"mesh":0
					}
				}
			},
			"name":"columns"
		},
		{
			"name":"arch",
			"translation":[
				-0.09778502583503723,
				6.266541004180908,
				-0.06752395629882812
			]
		},
		{
			"name":"big_arch",
			"translation":[
				-7.546427249908447,
				0,
				-0.08889007568359375
			]
		},
		{
			"name":"column.001",
			"translation":[
				-7.546427249908447,
				0,
				-0.08889007568359375
			]
		},
		{
			"name":"column.002",
			"translation":[
				-2.5464272499084473,
				0,
				-0.08889007568359375
			]
		},
		{
			"name":"column.003",
			"translation":[
				2.4535727500915527,
				0,
				-0.08889007568359375
			]
		},
		{
			"name":"column.004",
			"translation":[
				7.453572750091553,
				0,
				-0.08889007568359375
			]
		},
		{
			"children":[
				2,
				3,
				4,
				5,
				6,
				7
			],
			"name":"archway",
			"translation":[
				0,
				0,
				39
			]
		},
		{
			"mesh":0,
			"name":"floor",
			"scale":[
				200,
				0.25,
				200
			],
			"translation":[
				0,
				-0.10000000149011612,
				0
			]
		},
		{
			"mesh":1,
			"name":"Plane"
		}
	],
	"materials":[
		{
			"doubleSided":true,
			"name":"floor",
			"pbrMetallicRoughness":{
				"baseColorFactor":[
					0.08872450888156891,
					0.08872450888156891,
					0.08872450888156891,
					1
				],
				"metallicFactor":0
			}
		}
	],
	"meshes":[
		{
			"name":"Cube.001",
			"primitives":[
				{
					"attributes":{
						"POSITION":0,
						"NORMAL":1,
						"TEXCOORD_0":2
					},
					"indices":3,
					"material":0
				}
			]
		},
		{
			"name":"Plane.006",
			"primitives":[
				{
					"attributes":{
						"POSITION":4,
						"NORMAL":5
					},
					"indices":6
				}
			]
		}
	],
	"accessors":[
		{
			"bufferView":0,
			"componentType":5126,
			"count":24,
			"max":[
				0.3999999761581421,
				0.440000057220459,
				0.40199998021125793
			],
			"min":[
				-0.3999999761581421,
				0.039999961853027344,
				-0.39799997210502625
			],
			"type":"VEC3"
		},
		{
			"bufferView":1,
			"componentType":5126,
			"count":24,
			"type":"VEC3"
		},
		{
			"bufferView":2,
			"componentType":5126,
			"count":24,
			"type":"VEC2"
		},
		{
			"bufferView":3,
			"componentType":5123,
			"count":36,
			"type":"SCALAR"
		},
		{
			"bufferView":4,
			"componentType":5126,
			"count":5008,
			"max":[
				1.065000057220459,
				11.579999923706055,
				1.065000057220459
			],
			"min":[
				-1.065000057220459,
				0,
				-1.065000057220459
			],
			"type":"VEC3"
		},
		{
			"bufferView":5,
			"componentType":5126,
			"count":5008,
			"type":"VEC3"
		},
		{
			"bufferView":6,
			"componentType":5123,
			"count":7512,
			"type":"SCALAR"
		}
	],
	"bufferViews":[
		{
			"buffer":0,
			"byteLength":288,
			"byteOffset":0,
			"target":34962
		},
		{
			"buffer":0,
			"byteLength":288,
			"byteOffset":288,
			"target":34962
		},
		{
			"buffer":0,
			"byteLength":192,
			"byteOffset":576,
			"target":34962
		},
		{
			"buffer":0,
			"byteLength":72,
			"byteOffset":768,
			"target":34963
		},
		{
			"buffer":0,
			"byteLength":60096,
			"byteOffset":840,
			"target":34962
		},
		{
			"buffer":0,
			"byteLength":60096,
			"byteOffset":60936,
			"target":34962
		},
		{
			"buffer":0,
			"byteLength":15024,
			"byteOffset":121032,
			"target":34963
		}
	],
	"buffers":[
		{
			"byteLength":136056,
			"uri":"test_map.bin"
		}
	]
}
