{
	"asset":{
		"generator":"Khronos glTF Blender I/O v4.2.57",
		"version":"2.0"
	},
	"extensionsUsed":[
		"OMI_physics_shape"
	],
	"extensions":{},
	"scene":0,
	"scenes":[
		{
			"extras":{
				"body_properties":{
					"is_motion":1,
					"shape_index":0
				},
				"shape_properties":{
					"is_collision":1,
					"mesh":0,
					"index":0,
					"shape_types":16,
					"size":[
						2.0,
						2.0,
						2.0
					]
				},
				"unit_size":1.0,
				"map_properties":{
					"lock_camera":0,
					"is_trimesh":0
				}
			},
			"name":"Scene",
			"nodes":[
				0,
				1,
				2,
				3,
				4,
				5,
				6,
				8,
				9
			]
		}
	],
	"nodes":[
		{
			"mesh":0,
			"name":"stairs"
		},
		{
			"extras":{
				"spawn_point":true
			},
			"name":"spawn"
		},
		{
			"mesh":1,
			"name":"platform"
		},
		{
			"mesh":2,
			"name":"cylinder"
		},
		{
			"mesh":3,
			"name":"difficult_shape"
		},
		{
			"mesh":4,
			"name":"rigidbody_Sphere"
		},
		{
			"mesh":5,
			"name":"character"
		},
		{
			"mesh":6,
			"name":"CubeChild"
		},
		{
			"children":[
				7
			],
			"mesh":7,
			"name":"CubeParent"
		},
		{
			"mesh":8,
			"name":"floor"
		}
	],
	"materials":[
		{
			"doubleSided":true,
			"name":"floor",
			"pbrMetallicRoughness":{
				"baseColorFactor":[
					0.08872450888156891,
					0.08872450888156891,
					0.08872450888156891,
					1
				],
				"metallicFactor":0
			}
		}
	],
	"meshes":[
		{
			"name":"Cube.005",
			"primitives":[
				{
					"attributes":{
						"POSITION":0,
						"NORMAL":1,
						"TEXCOORD_0":2
					},
					"indices":3
				}
			]
		},
		{
			"name":"Cube.004",
			"primitives":[
				{
					"attributes":{
						"POSITION":4,
						"NORMAL":5,
						"TEXCOORD_0":6
					},
					"indices":3
				}
			]
		},
		{
			"name":"Cylinder.001",
			"primitives":[
				{
					"attributes":{
						"POSITION":7,
						"NORMAL":8,
						"TEXCOORD_0":9
					},
					"indices":10
				}
			]
		},
		{
			"name":"Cylinder.003",
			"primitives":[
				{
					"attributes":{
						"POSITION":11,
						"NORMAL":12,
						"TEXCOORD_0":13
					},
					"indices":14
				}
			]
		},
		{
			"name":"Sphere.001",
			"primitives":[
				{
					"attributes":{
						"POSITION":15,
						"NORMAL":16,
						"TEXCOORD_0":17
					},
					"indices":18
				}
			]
		},
		{
			"name":"Suzanne.001",
			"primitives":[
				{
					"attributes":{
						"POSITION":19,
						"NORMAL":20,
						"TEXCOORD_0":21
					},
					"indices":22
				}
			]
		},
		{
			"name":"Cube.006",
			"primitives":[
				{
					"attributes":{
						"POSITION":23,
						"NORMAL":24,
						"TEXCOORD_0":25
					},
					"indices":26
				}
			]
		},
		{
			"name":"Cube.007",
			"primitives":[
				{
					"attributes":{
						"POSITION":27,
						"NORMAL":28,
						"TEXCOORD_0":29
					},
					"indices":26
				}
			]
		},
		{
			"name":"Cube.008",
			"primitives":[
				{
					"attributes":{
						"POSITION":30,
						"NORMAL":31,
						"TEXCOORD_0":32
					},
					"indices":26,
					"material":0
				}
			]
		}
	],
	"accessors":[
		{
			"bufferView":0,
			"componentType":5126,
			"count":24,
			"max":[
				2.500000476837158,
				3,
				51
			],
			"min":[
				-2.500000476837158,
				0,
				46
			],
			"type":"VEC3"
		},
		{
			"bufferView":1,
			"componentType":5126,
			"count":24,
			"type":"VEC3"
		},
		{
			"bufferView":2,
			"componentType":5126,
			"count":24,
			"type":"VEC2"
		},
		{
			"bufferView":3,
			"componentType":5123,
			"count":36,
			"type":"SCALAR"
		},
		{
			"bufferView":4,
			"componentType":5126,
			"count":24,
			"max":[
				2.500000238418579,
				3,
				56
			],
			"min":[
				-2.500000238418579,
				0,
				51
			],
			"type":"VEC3"
		},
		{
			"bufferView":5,
			"componentType":5126,
			"count":24,
			"type":"VEC3"
		},
		{
			"bufferView":6,
			"componentType":5126,
			"count":24,
			"type":"VEC2"
		},
		{
			"bufferView":7,
			"componentType":5126,
			"count":38,
			"max":[
				-18.287609100341797,
				19.999998092651367,
				31.131999969482422
			],
			"min":[
				-23.712390899658203,
				0,
				24.868000030517578
			],
			"type":"VEC3"
		},
		{
			"bufferView":8,
			"componentType":5126,
			"count":38,
			"type":"VEC3"
		},
		{
			"bufferView":9,
			"componentType":5126,
			"count":38,
			"type":"VEC2"
		},
		{
			"bufferView":10,
			"componentType":5123,
			"count":72,
			"type":"SCALAR"
		},
		{
			"bufferView":11,
			"componentType":5126,
			"count":110,
			"max":[
				-17.287609100341797,
				14.651862144470215,
				42.13199996948242
			],
			"min":[
				-22.712390899658203,
				0,
				35.86800003051758
			],
			"type":"VEC3"
		},
		{
			"bufferView":12,
			"componentType":5126,
			"count":110,
			"type":"VEC3"
		},
		{
			"bufferView":13,
			"componentType":5126,
			"count":110,
			"type":"VEC2"
		},
		{
			"bufferView":14,
			"componentType":5123,
			"count":180,
			"type":"SCALAR"
		},
		{
			"bufferView":15,
			"componentType":5126,
			"count":1984,
			"max":[
				-14.000001907348633,
				10,
				20.999996185302734
			],
			"min":[
				-23.999996185302734,
				0,
				11
			],
			"type":"VEC3"
		},
		{
			"bufferView":16,
			"componentType":5126,
			"count":1984,
			"type":"VEC3"
		},
		{
			"bufferView":17,
			"componentType":5126,
			"count":1984,
			"type":"VEC2"
		},
		{
			"bufferView":18,
			"componentType":5123,
			"count":2880,
			"type":"SCALAR"
		},
		{
			"bufferView":19,
			"componentType":5126,
			"count":1966,
			"max":[
				1.3671875,
				3.984375,
				0.8515625
			],
			"min":[
				-1.3671875,
				2.015625,
				-0.8515625
			],
			"type":"VEC3"
		},
		{
			"bufferView":20,
			"componentType":5126,
			"count":1966,
			"type":"VEC3"
		},
		{
			"bufferView":21,
			"componentType":5126,
			"count":1966,
			"type":"VEC2"
		},
		{
			"bufferView":22,
			"componentType":5123,
			"count":2904,
			"type":"SCALAR"
		},
		{
			"bufferView":23,
			"componentType":5126,
			"count":24,
			"max":[
				14.502424240112305,
				4.097297668457031,
				32.17814636230469
			],
			"min":[
				12.502424240112305,
				2.0972976684570312,
				30.178146362304688
			],
			"type":"VEC3"
		},
		{
			"bufferView":24,
			"componentType":5126,
			"count":24,
			"type":"VEC3"
		},
		{
			"bufferView":25,
			"componentType":5126,
			"count":24,
			"type":"VEC2"
		},
		{
			"bufferView":26,
			"componentType":5123,
			"count":36,
			"type":"SCALAR"
		},
		{
			"bufferView":27,
			"componentType":5126,
			"count":24,
			"max":[
				14.502424240112305,
				2.0972976684570312,
				33.17814636230469
			],
			"min":[
				12.502424240112305,
				0.09729766845703125,
				31.178146362304688
			],
			"type":"VEC3"
		},
		{
			"bufferView":28,
			"componentType":5126,
			"count":24,
			"type":"VEC3"
		},
		{
			"bufferView":29,
			"componentType":5126,
			"count":24,
			"type":"VEC2"
		},
		{
			"bufferView":30,
			"componentType":5126,
			"count":24,
			"max":[
				79.99999237060547,
				0.010000012814998627,
				80.39999389648438
			],
			"min":[
				-79.99999237060547,
				-0.09000001102685928,
				-79.59999084472656
			],
			"type":"VEC3"
		},
		{
			"bufferView":31,
			"componentType":5126,
			"count":24,
			"type":"VEC3"
		},
		{
			"bufferView":32,
			"componentType":5126,
			"count":24,
			"type":"VEC2"
		}
	],
	"bufferViews":[
		{
			"buffer":0,
			"byteLength":288,
			"byteOffset":0,
			"target":34962
		},
		{
			"buffer":0,
			"byteLength":288,
			"byteOffset":288,
			"target":34962
		},
		{
			"buffer":0,
			"byteLength":192,
			"byteOffset":576,
			"target":34962
		},
		{
			"buffer":0,
			"byteLength":72,
			"byteOffset":768,
			"target":34963
		},
		{
			"buffer":0,
			"byteLength":288,
			"byteOffset":840,
			"target":34962
		},
		{
			"buffer":0,
			"byteLength":288,
			"byteOffset":1128,
			"target":34962
		},
		{
			"buffer":0,
			"byteLength":192,
			"byteOffset":1416,
			"target":34962
		},
		{
			"buffer":0,
			"byteLength":456,
			"byteOffset":1608,
			"target":34962
		},
		{
			"buffer":0,
			"byteLength":456,
			"byteOffset":2064,
			"target":34962
		},
		{
			"buffer":0,
			"byteLength":304,
			"byteOffset":2520,
			"target":34962
		},
		{
			"buffer":0,
			"byteLength":144,
			"byteOffset":2824,
			"target":34963
		},
		{
			"buffer":0,
			"byteLength":1320,
			"byteOffset":2968,
			"target":34962
		},
		{
			"buffer":0,
			"byteLength":1320,
			"byteOffset":4288,
			"target":34962
		},
		{
			"buffer":0,
			"byteLength":880,
			"byteOffset":5608,
			"target":34962
		},
		{
			"buffer":0,
			"byteLength":360,
			"byteOffset":6488,
			"target":34963
		},
		{
			"buffer":0,
			"byteLength":23808,
			"byteOffset":6848,
			"target":34962
		},
		{
			"buffer":0,
			"byteLength":23808,
			"byteOffset":30656,
			"target":34962
		},
		{
			"buffer":0,
			"byteLength":15872,
			"byteOffset":54464,
			"target":34962
		},
		{
			"buffer":0,
			"byteLength":5760,
			"byteOffset":70336,
			"target":34963
		},
		{
			"buffer":0,
			"byteLength":23592,
			"byteOffset":76096,
			"target":34962
		},
		{
			"buffer":0,
			"byteLength":23592,
			"byteOffset":99688,
			"target":34962
		},
		{
			"buffer":0,
			"byteLength":15728,
			"byteOffset":123280,
			"target":34962
		},
		{
			"buffer":0,
			"byteLength":5808,
			"byteOffset":139008,
			"target":34963
		},
		{
			"buffer":0,
			"byteLength":288,
			"byteOffset":144816,
			"target":34962
		},
		{
			"buffer":0,
			"byteLength":288,
			"byteOffset":145104,
			"target":34962
		},
		{
			"buffer":0,
			"byteLength":192,
			"byteOffset":145392,
			"target":34962
		},
		{
			"buffer":0,
			"byteLength":72,
			"byteOffset":145584,
			"target":34963
		},
		{
			"buffer":0,
			"byteLength":288,
			"byteOffset":145656,
			"target":34962
		},
		{
			"buffer":0,
			"byteLength":288,
			"byteOffset":145944,
			"target":34962
		},
		{
			"buffer":0,
			"byteLength":192,
			"byteOffset":146232,
			"target":34962
		},
		{
			"buffer":0,
			"byteLength":288,
			"byteOffset":146424,
			"target":34962
		},
		{
			"buffer":0,
			"byteLength":288,
			"byteOffset":146712,
			"target":34962
		},
		{
			"buffer":0,
			"byteLength":192,
			"byteOffset":147000,
			"target":34962
		}
	],
	"buffers":[
		{
			"byteLength":147192,
			"uri":"test_map.bin"
		}
	]
}
