{
	"asset":{
		"generator":"Khronos glTF Blender I/O v4.2.57",
		"version":"2.0"
	},
	"extensionsUsed":[
		"OMI_physics_body",
		"OMI_physics_shape"
	],
	"extensions":{
		"OMI_physics_shape":{
			"shapes":[
				{
					"type":"convex",
					"convex":{
						"mesh":0
					}
				},
				{
					"type":"convex",
					"convex":{
						"mesh":1
					}
				},
				{
					"type":"convex",
					"convex":{
						"mesh":2
					}
				},
				{
					"type":"convex",
					"convex":{
						"mesh":3
					}
				},
				{
					"type":"convex",
					"convex":{
						"mesh":5
					}
				},
				{
					"type":"convex",
					"convex":{
						"mesh":6
					}
				}
			]
		}
	},
	"scene":0,
	"scenes":[
		{
			"name":"Scene",
			"nodes":[
				0,
				1,
				2,
				3,
				4,
				5,
				7,
				8
			]
		}
	],
	"nodes":[
		{
			"extensions":{
				"OMI_physics_body":{
					"collider":{
						"shape":48
					}
				}
			},
			"mesh":0,
			"name":"stairs",
			"rotation":[
				0,
				-0.7071067094802856,
				0,
				0.7071068286895752
			],
			"translation":[
				0,
				1.5,
				48.5
			]
		},
		{
			"extensions":{
				"OMI_physics_body":{
					"collider":{
						"shape":49
					}
				}
			},
			"mesh":1,
			"name":"platform",
			"translation":[
				0,
				1.5,
				53.5
			]
		},
		{
			"extensions":{
				"OMI_physics_body":{
					"collider":{
						"shape":50
					}
				}
			},
			"mesh":2,
			"name":"cylinder",
			"translation":[
				-21,
				10.000001907348633,
				28.000001907348633
			]
		},
		{
			"extensions":{
				"OMI_physics_body":{
					"collider":{
						"shape":51
					}
				}
			},
			"mesh":3,
			"name":"difficult_shape",
			"translation":[
				-20.000003814697266,
				7.864574432373047,
				39.000003814697266
			]
		},
		{
			"mesh":4,
			"name":"rigidbody_Sphere",
			"translation":[
				-19.00000762939453,
				5.000010013580322,
				16.00002098083496
			]
		},
		{
			"extensions":{
				"OMI_physics_body":{
					"collider":{
						"shape":52
					}
				}
			},
			"mesh":5,
			"name":"character",
			"translation":[
				0,
				3.1852574348449707,
				0.06932714581489563
			]
		},
		{
			"extensions":{
				"OMI_physics_body":{
					"collider":{
						"shape":53
					}
				}
			},
			"mesh":6,
			"name":"CubeChild",
			"translation":[
				3.000001907348633,
				3.141935348510742,
				-2.5709686279296875
			]
		},
		{
			"children":[
				6
			],
			"mesh":7,
			"name":"CubeParent",
			"translation":[
				21.502424240112305,
				2.0972976684570312,
				32.17814636230469
			]
		},
		{
			"mesh":8,
			"name":"floor"
		}
	],
	"materials":[
		{
			"doubleSided":true,
			"name":"Material",
			"pbrMetallicRoughness":{
				"baseColorFactor":[
					0.800000011920929,
					0.800000011920929,
					0.800000011920929,
					1
				],
				"metallicFactor":0,
				"roughnessFactor":0.5
			}
		},
		{
			"doubleSided":true,
			"name":"floor",
			"pbrMetallicRoughness":{
				"baseColorFactor":[
					0.08872450888156891,
					0.08872450888156891,
					0.08872450888156891,
					1
				],
				"metallicFactor":0
			}
		}
	],
	"meshes":[
		{
			"name":"Cube.005",
			"primitives":[
				{
					"attributes":{
						"POSITION":0,
						"NORMAL":1,
						"TEXCOORD_0":2
					},
					"indices":3
				}
			]
		},
		{
			"name":"Cube.004",
			"primitives":[
				{
					"attributes":{
						"POSITION":4,
						"NORMAL":5,
						"TEXCOORD_0":6
					},
					"indices":3
				}
			]
		},
		{
			"name":"Cylinder.001",
			"primitives":[
				{
					"attributes":{
						"POSITION":7,
						"NORMAL":8,
						"TEXCOORD_0":9
					},
					"indices":10
				}
			]
		},
		{
			"name":"Cylinder.003",
			"primitives":[
				{
					"attributes":{
						"POSITION":11,
						"NORMAL":12,
						"TEXCOORD_0":13
					},
					"indices":14
				}
			]
		},
		{
			"name":"Sphere.001",
			"primitives":[
				{
					"attributes":{
						"POSITION":15,
						"NORMAL":16,
						"TEXCOORD_0":17
					},
					"indices":18,
					"material":0
				}
			]
		},
		{
			"name":"Suzanne.001",
			"primitives":[
				{
					"attributes":{
						"POSITION":19,
						"NORMAL":20,
						"TEXCOORD_0":21
					},
					"indices":22
				}
			]
		},
		{
			"name":"Cube.006",
			"primitives":[
				{
					"attributes":{
						"POSITION":23,
						"NORMAL":24,
						"TEXCOORD_0":25
					},
					"indices":26
				}
			]
		},
		{
			"name":"Cube.007",
			"primitives":[
				{
					"attributes":{
						"POSITION":27,
						"NORMAL":28,
						"TEXCOORD_0":29
					},
					"indices":26
				}
			]
		},
		{
			"name":"Cube.008",
			"primitives":[
				{
					"attributes":{
						"POSITION":30,
						"NORMAL":31,
						"TEXCOORD_0":32
					},
					"indices":26,
					"material":1
				}
			]
		}
	],
	"accessors":[
		{
			"bufferView":0,
			"componentType":5126,
			"count":24,
			"max":[
				2.500000476837158,
				1.5,
				2.5
			],
			"min":[
				-2.500000476837158,
				-1.5,
				-2.5
			],
			"type":"VEC3"
		},
		{
			"bufferView":1,
			"componentType":5126,
			"count":24,
			"type":"VEC3"
		},
		{
			"bufferView":2,
			"componentType":5126,
			"count":24,
			"type":"VEC2"
		},
		{
			"bufferView":3,
			"componentType":5123,
			"count":36,
			"type":"SCALAR"
		},
		{
			"bufferView":4,
			"componentType":5126,
			"count":24,
			"max":[
				2.500000238418579,
				1.5,
				2.5
			],
			"min":[
				-2.500000238418579,
				-1.5,
				-2.5
			],
			"type":"VEC3"
		},
		{
			"bufferView":5,
			"componentType":5126,
			"count":24,
			"type":"VEC3"
		},
		{
			"bufferView":6,
			"componentType":5126,
			"count":24,
			"type":"VEC2"
		},
		{
			"bufferView":7,
			"componentType":5126,
			"count":38,
			"max":[
				2.712390899658203,
				9.999996185302734,
				3.131998062133789
			],
			"min":[
				-2.712390899658203,
				-10.000001907348633,
				-3.1320018768310547
			],
			"type":"VEC3"
		},
		{
			"bufferView":8,
			"componentType":5126,
			"count":38,
			"type":"VEC3"
		},
		{
			"bufferView":9,
			"componentType":5126,
			"count":38,
			"type":"VEC2"
		},
		{
			"bufferView":10,
			"componentType":5123,
			"count":72,
			"type":"SCALAR"
		},
		{
			"bufferView":11,
			"componentType":5126,
			"count":110,
			"max":[
				2.7123947143554688,
				6.787287712097168,
				3.1319961547851562
			],
			"min":[
				-2.7123870849609375,
				-7.864574432373047,
				-3.1320037841796875
			],
			"type":"VEC3"
		},
		{
			"bufferView":12,
			"componentType":5126,
			"count":110,
			"type":"VEC3"
		},
		{
			"bufferView":13,
			"componentType":5126,
			"count":110,
			"type":"VEC2"
		},
		{
			"bufferView":14,
			"componentType":5123,
			"count":180,
			"type":"SCALAR"
		},
		{
			"bufferView":15,
			"componentType":5126,
			"count":1984,
			"max":[
				5.000005722045898,
				4.999989986419678,
				4.999975204467773
			],
			"min":[
				-4.999988555908203,
				-5.000010013580322,
				-5.000020980834961
			],
			"type":"VEC3"
		},
		{
			"bufferView":16,
			"componentType":5126,
			"count":1984,
			"type":"VEC3"
		},
		{
			"bufferView":17,
			"componentType":5126,
			"count":1984,
			"type":"VEC2"
		},
		{
			"bufferView":18,
			"componentType":5123,
			"count":2880,
			"type":"SCALAR"
		},
		{
			"bufferView":19,
			"componentType":5126,
			"count":1966,
			"max":[
				1.3671875,
				0.7991175651550293,
				0.7822353839874268
			],
			"min":[
				-1.3671875,
				-1.1696324348449707,
				-0.9208896160125732
			],
			"type":"VEC3"
		},
		{
			"bufferView":20,
			"componentType":5126,
			"count":1966,
			"type":"VEC3"
		},
		{
			"bufferView":21,
			"componentType":5126,
			"count":1966,
			"type":"VEC2"
		},
		{
			"bufferView":22,
			"componentType":5123,
			"count":2904,
			"type":"SCALAR"
		},
		{
			"bufferView":23,
			"componentType":5126,
			"count":24,
			"max":[
				1.35406494140625,
				1.3540658950805664,
				1.3540668487548828
			],
			"min":[
				-1.3540668487548828,
				-1.3540661334991455,
				-1.3540668487548828
			],
			"type":"VEC3"
		},
		{
			"bufferView":24,
			"componentType":5126,
			"count":24,
			"type":"VEC3"
		},
		{
			"bufferView":25,
			"componentType":5126,
			"count":24,
			"type":"VEC2"
		},
		{
			"bufferView":26,
			"componentType":5123,
			"count":36,
			"type":"SCALAR"
		},
		{
			"bufferView":27,
			"componentType":5126,
			"count":24,
			"max":[
				1.5709686279296875,
				1.570967674255371,
				1.5709686279296875
			],
			"min":[
				-1.5709667205810547,
				-1.570967674255371,
				-1.5709686279296875
			],
			"type":"VEC3"
		},
		{
			"bufferView":28,
			"componentType":5126,
			"count":24,
			"type":"VEC3"
		},
		{
			"bufferView":29,
			"componentType":5126,
			"count":24,
			"type":"VEC2"
		},
		{
			"bufferView":30,
			"componentType":5126,
			"count":24,
			"max":[
				79.99999237060547,
				0.050000015646219254,
				79.99999237060547
			],
			"min":[
				-79.99999237060547,
				-0.05000000819563866,
				-79.99999237060547
			],
			"type":"VEC3"
		},
		{
			"bufferView":31,
			"componentType":5126,
			"count":24,
			"type":"VEC3"
		},
		{
			"bufferView":32,
			"componentType":5126,
			"count":24,
			"type":"VEC2"
		}
	],
	"bufferViews":[
		{
			"buffer":0,
			"byteLength":288,
			"byteOffset":0,
			"target":34962
		},
		{
			"buffer":0,
			"byteLength":288,
			"byteOffset":288,
			"target":34962
		},
		{
			"buffer":0,
			"byteLength":192,
			"byteOffset":576,
			"target":34962
		},
		{
			"buffer":0,
			"byteLength":72,
			"byteOffset":768,
			"target":34963
		},
		{
			"buffer":0,
			"byteLength":288,
			"byteOffset":840,
			"target":34962
		},
		{
			"buffer":0,
			"byteLength":288,
			"byteOffset":1128,
			"target":34962
		},
		{
			"buffer":0,
			"byteLength":192,
			"byteOffset":1416,
			"target":34962
		},
		{
			"buffer":0,
			"byteLength":456,
			"byteOffset":1608,
			"target":34962
		},
		{
			"buffer":0,
			"byteLength":456,
			"byteOffset":2064,
			"target":34962
		},
		{
			"buffer":0,
			"byteLength":304,
			"byteOffset":2520,
			"target":34962
		},
		{
			"buffer":0,
			"byteLength":144,
			"byteOffset":2824,
			"target":34963
		},
		{
			"buffer":0,
			"byteLength":1320,
			"byteOffset":2968,
			"target":34962
		},
		{
			"buffer":0,
			"byteLength":1320,
			"byteOffset":4288,
			"target":34962
		},
		{
			"buffer":0,
			"byteLength":880,
			"byteOffset":5608,
			"target":34962
		},
		{
			"buffer":0,
			"byteLength":360,
			"byteOffset":6488,
			"target":34963
		},
		{
			"buffer":0,
			"byteLength":23808,
			"byteOffset":6848,
			"target":34962
		},
		{
			"buffer":0,
			"byteLength":23808,
			"byteOffset":30656,
			"target":34962
		},
		{
			"buffer":0,
			"byteLength":15872,
			"byteOffset":54464,
			"target":34962
		},
		{
			"buffer":0,
			"byteLength":5760,
			"byteOffset":70336,
			"target":34963
		},
		{
			"buffer":0,
			"byteLength":23592,
			"byteOffset":76096,
			"target":34962
		},
		{
			"buffer":0,
			"byteLength":23592,
			"byteOffset":99688,
			"target":34962
		},
		{
			"buffer":0,
			"byteLength":15728,
			"byteOffset":123280,
			"target":34962
		},
		{
			"buffer":0,
			"byteLength":5808,
			"byteOffset":139008,
			"target":34963
		},
		{
			"buffer":0,
			"byteLength":288,
			"byteOffset":144816,
			"target":34962
		},
		{
			"buffer":0,
			"byteLength":288,
			"byteOffset":145104,
			"target":34962
		},
		{
			"buffer":0,
			"byteLength":192,
			"byteOffset":145392,
			"target":34962
		},
		{
			"buffer":0,
			"byteLength":72,
			"byteOffset":145584,
			"target":34963
		},
		{
			"buffer":0,
			"byteLength":288,
			"byteOffset":145656,
			"target":34962
		},
		{
			"buffer":0,
			"byteLength":288,
			"byteOffset":145944,
			"target":34962
		},
		{
			"buffer":0,
			"byteLength":192,
			"byteOffset":146232,
			"target":34962
		},
		{
			"buffer":0,
			"byteLength":288,
			"byteOffset":146424,
			"target":34962
		},
		{
			"buffer":0,
			"byteLength":288,
			"byteOffset":146712,
			"target":34962
		},
		{
			"buffer":0,
			"byteLength":192,
			"byteOffset":147000,
			"target":34962
		}
	],
	"buffers":[
		{
			"byteLength":147192,
			"uri":"test_map.bin"
		}
	]
}
