<svg width="16" height="16" xmlns="http://www.w3.org/2000/svg"><path fill="#b1b1b1" stroke="#000" stroke-width=".5" stroke-linejoin="round" d="M8 4 4 6 8 8 12 6Z"/><path transform="translate(4 2)" fill="#727171" stroke="#000" stroke-width=".5" stroke-linejoin="round" d="M8 4 4 6 4 10 8 8Z"/><path transform="translate(4 2)" opacity="1" fill="#595959" fill-opacity="1" stroke="#000" stroke-opacity="1" stroke-width=".5" stroke-linejoin="round" d="M0 4 4 6 4 10 0 8Z"/><circle transform="matrix(1 0 0 .37 0 0)" fill="none" stroke="#ff0" stroke-opacity="1" cx="8" cy="12.162" r="3"/>
<line opacity="1" stroke="#ff0" stroke-width=".5" stroke-linecap="round" x1="3" y1="4.5" x2="4" y2="4.5"/><line opacity="1" stroke="#ff0" stroke-width=".3" stroke-linecap="round" x1="5" y1="6.5" x2="5.5" y2="6"/><line opacity="1" stroke="#ff0" stroke-width=".3" stroke-linecap="round" x1="10" y1="3" x2="10.5" y2="2.5"/><line opacity="1" stroke="#ff0" stroke-width=".3" stroke-linecap="round" x1="5.5" y1="3" x2="5" y2="2.5"/><line opacity="1" stroke="#ff0" stroke-width=".3" stroke-linecap="round" x1="10.5" y1="6.5" x2="10" y2="6"/><line opacity="1" stroke="#ff0" stroke-width=".5" stroke-linecap="round" x1="13" y1="4.5" x2="12" y2="4.5"/><line opacity="1" stroke="#ff0" stroke-width=".5" stroke-linecap="round" x1="8" y1="7" x2="8" y2="6.5"/><line opacity="1" stroke="#ff0" stroke-width=".5" stroke-linecap="round" x1="8" y1="2.5" x2="8" y2="2"/></svg>
